<mxfile host="app.diagrams.net" agent="Mozilla/5.0 (Windows NT 10.0; Win64; x64; rv:129.0) Gecko/20100101 Firefox/129.0" version="24.7.7">
  <diagram name="Hibo STR" id="Wa9x7KHW8JzEsCRcJoiK">
    <mxGraphModel dx="1134" dy="1691" grid="1" gridSize="10" guides="1" tooltips="1" connect="1" arrows="1" fold="1" page="1" pageScale="1" pageWidth="850" pageHeight="1100" math="0" shadow="0">
      <root>
        <mxCell id="0" />
        <mxCell id="1" parent="0" />
        <mxCell id="9setHl7YU-eTteCl_YB4-1" value="" style="rounded=0;whiteSpace=wrap;html=1;" parent="1" vertex="1">
          <mxGeometry x="20" y="-20" width="790" height="650" as="geometry" />
        </mxCell>
        <mxCell id="9setHl7YU-eTteCl_YB4-2" value="Mapping Outlet" style="swimlane;html=1;childLayout=stackLayout;startSize=20;rounded=0;shadow=0;comic=0;labelBackgroundColor=none;strokeWidth=1;fontFamily=Verdana;fontSize=12;align=center;" parent="1" vertex="1">
          <mxGeometry x="40" y="20" width="750" height="590" as="geometry" />
        </mxCell>
        <mxCell id="9setHl7YU-eTteCl_YB4-3" value="DM/SPV/AE/SAE" style="swimlane;html=1;startSize=20;" parent="9setHl7YU-eTteCl_YB4-2" vertex="1">
          <mxGeometry y="20" width="250" height="570" as="geometry" />
        </mxCell>
        <mxCell id="9setHl7YU-eTteCl_YB4-4" value="" style="ellipse;whiteSpace=wrap;html=1;rounded=0;shadow=0;comic=0;labelBackgroundColor=none;strokeWidth=1;fillColor=#000000;fontFamily=Verdana;fontSize=12;align=center;" parent="9setHl7YU-eTteCl_YB4-3" vertex="1">
          <mxGeometry x="100" y="30" width="40" height="40" as="geometry" />
        </mxCell>
        <mxCell id="9setHl7YU-eTteCl_YB4-5" value="Start" style="rounded=1;whiteSpace=wrap;html=1;shadow=0;comic=0;labelBackgroundColor=none;strokeWidth=1;fontFamily=Verdana;fontSize=12;align=center;arcSize=50;" parent="9setHl7YU-eTteCl_YB4-3" vertex="1">
          <mxGeometry x="70" y="100" width="100" height="30" as="geometry" />
        </mxCell>
        <mxCell id="9setHl7YU-eTteCl_YB4-6" style="edgeStyle=orthogonalEdgeStyle;rounded=0;html=1;labelBackgroundColor=none;startArrow=none;startFill=0;startSize=5;endArrow=classicThin;endFill=1;endSize=5;jettySize=auto;orthogonalLoop=1;strokeWidth=1;fontFamily=Verdana;fontSize=12" parent="9setHl7YU-eTteCl_YB4-3" source="9setHl7YU-eTteCl_YB4-4" target="9setHl7YU-eTteCl_YB4-5" edge="1">
          <mxGeometry relative="1" as="geometry" />
        </mxCell>
        <mxCell id="9setHl7YU-eTteCl_YB4-23" value="" style="shape=mxgraph.bpmn.shape;html=1;verticalLabelPosition=bottom;labelBackgroundColor=#ffffff;verticalAlign=top;perimeter=ellipsePerimeter;outline=end;symbol=terminate;rounded=0;shadow=0;comic=0;strokeWidth=1;fontFamily=Verdana;fontSize=12;align=center;" parent="9setHl7YU-eTteCl_YB4-3" vertex="1">
          <mxGeometry x="100" y="510" width="40" height="40" as="geometry" />
        </mxCell>
        <mxCell id="9setHl7YU-eTteCl_YB4-10" value="Mapping Outlet" style="rounded=0;whiteSpace=wrap;html=1;" parent="9setHl7YU-eTteCl_YB4-3" vertex="1">
          <mxGeometry x="60" y="170" width="120" height="60" as="geometry" />
        </mxCell>
        <mxCell id="9setHl7YU-eTteCl_YB4-37" style="edgeStyle=orthogonalEdgeStyle;rounded=0;orthogonalLoop=1;jettySize=auto;html=1;exitX=0.5;exitY=1;exitDx=0;exitDy=0;" parent="9setHl7YU-eTteCl_YB4-3" source="9setHl7YU-eTteCl_YB4-5" target="9setHl7YU-eTteCl_YB4-10" edge="1">
          <mxGeometry relative="1" as="geometry" />
        </mxCell>
        <mxCell id="X2f5cGZ6LWnL6mHaX5y_-6" value="NO" style="edgeStyle=orthogonalEdgeStyle;rounded=0;orthogonalLoop=1;jettySize=auto;html=1;exitX=0;exitY=0.5;exitDx=0;exitDy=0;entryX=0;entryY=0.5;entryDx=0;entryDy=0;" edge="1" parent="9setHl7YU-eTteCl_YB4-3" source="X2f5cGZ6LWnL6mHaX5y_-3" target="9setHl7YU-eTteCl_YB4-10">
          <mxGeometry relative="1" as="geometry">
            <Array as="points">
              <mxPoint x="30" y="390" />
              <mxPoint x="30" y="200" />
            </Array>
          </mxGeometry>
        </mxCell>
        <mxCell id="X2f5cGZ6LWnL6mHaX5y_-3" value="Ada Nomor STR" style="rhombus;whiteSpace=wrap;html=1;" vertex="1" parent="9setHl7YU-eTteCl_YB4-3">
          <mxGeometry x="80" y="350" width="80" height="80" as="geometry" />
        </mxCell>
        <mxCell id="9setHl7YU-eTteCl_YB4-8" value="Web KKI" style="swimlane;html=1;startSize=20;" parent="9setHl7YU-eTteCl_YB4-2" vertex="1">
          <mxGeometry x="250" y="20" width="250" height="570" as="geometry" />
        </mxCell>
        <mxCell id="9setHl7YU-eTteCl_YB4-32" value="Website KKI" style="shape=process;whiteSpace=wrap;html=1;backgroundOutline=1;" parent="9setHl7YU-eTteCl_YB4-8" vertex="1">
          <mxGeometry x="65" y="110" width="120" height="60" as="geometry" />
        </mxCell>
        <mxCell id="9setHl7YU-eTteCl_YB4-17" value="Database" style="swimlane;html=1;startSize=20;" parent="9setHl7YU-eTteCl_YB4-2" vertex="1">
          <mxGeometry x="500" y="20" width="250" height="570" as="geometry" />
        </mxCell>
        <mxCell id="X2f5cGZ6LWnL6mHaX5y_-14" style="edgeStyle=orthogonalEdgeStyle;rounded=0;orthogonalLoop=1;jettySize=auto;html=1;exitX=0.5;exitY=1;exitDx=0;exitDy=0;exitPerimeter=0;entryX=0.5;entryY=0;entryDx=0;entryDy=0;" edge="1" parent="9setHl7YU-eTteCl_YB4-17" source="9setHl7YU-eTteCl_YB4-31" target="X2f5cGZ6LWnL6mHaX5y_-13">
          <mxGeometry relative="1" as="geometry" />
        </mxCell>
        <mxCell id="9setHl7YU-eTteCl_YB4-31" value="Data Mapping Outlet &amp;amp; STR" style="shape=cylinder3;whiteSpace=wrap;html=1;boundedLbl=1;backgroundOutline=1;size=15;" parent="9setHl7YU-eTteCl_YB4-17" vertex="1">
          <mxGeometry x="95" y="160" width="65" height="110" as="geometry" />
        </mxCell>
        <mxCell id="X2f5cGZ6LWnL6mHaX5y_-13" value="Data Outlet &amp;amp; STR" style="shape=document;whiteSpace=wrap;html=1;boundedLbl=1;" vertex="1" parent="9setHl7YU-eTteCl_YB4-17">
          <mxGeometry x="67.5" y="310" width="120" height="80" as="geometry" />
        </mxCell>
        <mxCell id="X2f5cGZ6LWnL6mHaX5y_-4" style="edgeStyle=orthogonalEdgeStyle;rounded=0;orthogonalLoop=1;jettySize=auto;html=1;exitX=0.5;exitY=1;exitDx=0;exitDy=0;entryX=0.5;entryY=0;entryDx=0;entryDy=0;" edge="1" parent="9setHl7YU-eTteCl_YB4-2" source="9setHl7YU-eTteCl_YB4-32" target="X2f5cGZ6LWnL6mHaX5y_-3">
          <mxGeometry relative="1" as="geometry">
            <Array as="points">
              <mxPoint x="375" y="340" />
              <mxPoint x="120" y="340" />
            </Array>
          </mxGeometry>
        </mxCell>
        <mxCell id="X2f5cGZ6LWnL6mHaX5y_-11" value="YES" style="edgeStyle=orthogonalEdgeStyle;rounded=0;orthogonalLoop=1;jettySize=auto;html=1;exitX=1;exitY=0.5;exitDx=0;exitDy=0;entryX=0;entryY=0.5;entryDx=0;entryDy=0;entryPerimeter=0;" edge="1" parent="9setHl7YU-eTteCl_YB4-2" source="X2f5cGZ6LWnL6mHaX5y_-3" target="9setHl7YU-eTteCl_YB4-31">
          <mxGeometry x="-0.9016" relative="1" as="geometry">
            <Array as="points">
              <mxPoint x="490" y="410" />
              <mxPoint x="490" y="235" />
            </Array>
            <mxPoint as="offset" />
          </mxGeometry>
        </mxCell>
        <mxCell id="X2f5cGZ6LWnL6mHaX5y_-15" style="edgeStyle=orthogonalEdgeStyle;rounded=0;orthogonalLoop=1;jettySize=auto;html=1;exitX=0;exitY=0.5;exitDx=0;exitDy=0;entryX=0.5;entryY=0;entryDx=0;entryDy=0;" edge="1" parent="9setHl7YU-eTteCl_YB4-2" source="X2f5cGZ6LWnL6mHaX5y_-13" target="9setHl7YU-eTteCl_YB4-23">
          <mxGeometry relative="1" as="geometry">
            <Array as="points">
              <mxPoint x="510" y="370" />
              <mxPoint x="510" y="500" />
              <mxPoint x="120" y="500" />
            </Array>
          </mxGeometry>
        </mxCell>
        <mxCell id="X2f5cGZ6LWnL6mHaX5y_-2" style="edgeStyle=orthogonalEdgeStyle;rounded=0;orthogonalLoop=1;jettySize=auto;html=1;exitX=1;exitY=0.5;exitDx=0;exitDy=0;entryX=0;entryY=0.5;entryDx=0;entryDy=0;" edge="1" parent="1" source="X2f5cGZ6LWnL6mHaX5y_-1" target="9setHl7YU-eTteCl_YB4-32">
          <mxGeometry relative="1" as="geometry">
            <Array as="points">
              <mxPoint x="280" y="320" />
              <mxPoint x="280" y="180" />
            </Array>
          </mxGeometry>
        </mxCell>
        <mxCell id="X2f5cGZ6LWnL6mHaX5y_-1" value="Input Data Dokter &amp;amp; STR" style="shape=process;whiteSpace=wrap;html=1;backgroundOutline=1;" vertex="1" parent="1">
          <mxGeometry x="100" y="290" width="120" height="60" as="geometry" />
        </mxCell>
      </root>
    </mxGraphModel>
  </diagram>
</mxfile>
